<svg version="1.1" xmlns="http://www.w3.org/2000/svg" xmlns:xlink="http://www.w3.org/1999/xlink" width="1764" height="771"><defs/><g><g transform="translate(10,-46) scale(1,1)"><rect fill="#C0C0C0" stroke="none" x="143" y="71" width="124.80000000000001" height="15" opacity="0.2"/></g><g transform="translate(10,-46) scale(1,1)"><rect fill="#C0C0C0" stroke="none" x="143" y="85" width="312" height="513" opacity="0.2"/></g><g transform="translate(10,-46) scale(1,1)"><rect fill="#ffffff" stroke="none" x="136" y="79" width="312" height="512"/></g><g transform="translate(10,-46) scale(1,1)"><path fill="none" stroke="#000000" d="M 136 79 L 448 79 L 448 591 L 136 591 L 136 79 Z Z" stroke-miterlimit="10"/></g><g transform="translate(10,-46) scale(1,1)"><rect fill="#ffffff" stroke="none" x="136" y="64" width="124.80000000000001" height="15"/></g><g transform="translate(10,-46) scale(1,1)"><path fill="none" stroke="#000000" d="M 136 64 L 260.8 64 L 260.8 79 L 136 79 L 136 64 Z Z" stroke-miterlimit="10"/></g><g transform="translate(10,-46) scale(1,1)"><rect fill="#ffffff" stroke="none" x="136" y="78" width="312" height="513"/></g><g transform="translate(10,-46) scale(1,1)"><path fill="none" stroke="#000000" d="M 136 78 L 448 78 L 448 591 L 136 591 L 136 78 Z Z" stroke-miterlimit="10"/></g><g transform="translate(10,-46) scale(1,1)"><g><path fill="none" stroke="none"/><text fill="#000000" stroke="none" font-family="Arial" font-size="13px" font-style="normal" font-weight="bold" text-decoration="none" x="278.996826171875" y="98.5">view</text></g></g><g transform="translate(10,-46) scale(1,1)"><path fill="#ffffff" stroke="none" d="M 368.3 115.5 C 368.3 106.88435712 375.28435712 99.9 383.9 99.9 C 392.51564288 99.9 399.5 106.88435712 399.5 115.5 C 399.5 124.11564288 392.51564288 131.1 383.9 131.1 C 375.28435712 131.1 368.3 124.11564288 368.3 115.5 Z"/></g><g transform="translate(10,-46) scale(1,1)"><path fill="none" stroke="#000000" d="M 368.3 115.5 C 368.3 106.88435712 375.28435712 99.9 383.9 99.9 C 392.51564288 99.9 399.5 106.88435712 399.5 115.5 C 399.5 124.11564288 392.51564288 131.1 383.9 131.1 C 375.28435712 131.1 368.3 124.11564288 368.3 115.5 Z" stroke-miterlimit="10"/></g><g transform="translate(10,-46) scale(1,1)"><path fill="none" stroke="#000000" d="M 360.5 99.9 L 360.5 131.1" stroke-miterlimit="10"/></g><g transform="translate(10,-46) scale(1,1)"><path fill="none" stroke="#000000" d="M 360.5 115.5 L 368.3 115.5" stroke-miterlimit="10"/></g><g transform="translate(10,-46) scale(1,1)"><g><path fill="none" stroke="none"/><text fill="#000000" stroke="none" font-family="Arial" font-size="13px" font-style="normal" font-weight="bold" text-decoration="none" x="380" y="154.5"></text></g></g><g transform="translate(10,-46) scale(1,1)"><path fill="#ffffff" stroke="none" d="M 38.43571750710227 313.68 C 38.43571750710227 308.886167936 42.321559832047726 305 47.114990234375 305 C 51.908420636702274 305 55.79426296164773 308.886167936 55.79426296164773 313.68 C 55.79426296164773 318.473832064 51.908420636702274 322.36 47.114990234375 322.36 C 42.321559832047726 322.36 38.43571750710227 318.473832064 38.43571750710227 313.68 Z"/></g><g transform="translate(10,-46) scale(1,1)"><path fill="none" stroke="#000000" d="M 38.43571750710227 313.68 C 38.43571750710227 308.886167936 42.321559832047726 305 47.114990234375 305 C 51.908420636702274 305 55.79426296164773 308.886167936 55.79426296164773 313.68 C 55.79426296164773 318.473832064 51.908420636702274 322.36 47.114990234375 322.36 C 42.321559832047726 322.36 38.43571750710227 318.473832064 38.43571750710227 313.68 Z" stroke-miterlimit="10"/></g><g transform="translate(10,-46) scale(1,1)"><path fill="none" stroke="#000000" d="M 47.114990234375 322.36 L 47.114990234375 339.64" stroke-miterlimit="10"/></g><g transform="translate(10,-46) scale(1,1)"><path fill="none" stroke="#000000" d="M 37.92517205255682 328.84 L 56.30480841619318 328.84" stroke-miterlimit="10"/></g><g transform="translate(10,-46) scale(1,1)"><path fill="none" stroke="#000000" d="M 47.114990234375 339.64 L 34.351353870738635 357" stroke-miterlimit="10"/></g><g transform="translate(10,-46) scale(1,1)"><path fill="none" stroke="#000000" d="M 47.114990234375 339.64 L 59.878626598011365 357" stroke-miterlimit="10"/></g><g transform="translate(10,-46) scale(1,1)"><g><path fill="none" stroke="none"/><text fill="#000000" stroke="none" font-family="Arial" font-size="13px" font-style="normal" font-weight="bold" text-decoration="none" x="25.44091796875" y="377.5">Advisor</text></g></g><g transform="translate(10,-46) scale(1,1)"><path fill="none" stroke="#000000" d="M 56 303 L 72 232 L 179 279" stroke-miterlimit="10"/></g><g transform="translate(10,-46) scale(1,1)"><path fill="none" stroke="#000000" d="M 168.0024674517176 278.7670239294063 L 179 279 L 171.38830911816075 271.05883119941876" stroke-miterlimit="10"/></g><g transform="translate(10,-46) scale(1,1)"><rect fill="#C0C0C0" stroke="none" x="471" y="71" width="361.6" height="15" opacity="0.2"/></g><g transform="translate(10,-46) scale(1,1)"><rect fill="#C0C0C0" stroke="none" x="471" y="85" width="904" height="610" opacity="0.2"/></g><g transform="translate(10,-46) scale(1,1)"><rect fill="#ffffff" stroke="none" x="464" y="79" width="904" height="609"/></g><g transform="translate(10,-46) scale(1,1)"><path fill="none" stroke="#000000" d="M 464 79 L 1368 79 L 1368 688 L 464 688 L 464 79 Z Z" stroke-miterlimit="10"/></g><g transform="translate(10,-46) scale(1,1)"><rect fill="#ffffff" stroke="none" x="464" y="64" width="361.6" height="15"/></g><g transform="translate(10,-46) scale(1,1)"><path fill="none" stroke="#000000" d="M 464 64 L 825.6 64 L 825.6 79 L 464 79 L 464 64 Z Z" stroke-miterlimit="10"/></g><g transform="translate(10,-46) scale(1,1)"><rect fill="#ffffff" stroke="none" x="464" y="78" width="904" height="610"/></g><g transform="translate(10,-46) scale(1,1)"><path fill="none" stroke="#000000" d="M 464 78 L 1368 78 L 1368 688 L 464 688 L 464 78 Z Z" stroke-miterlimit="10"/></g><g transform="translate(10,-46) scale(1,1)"><g><path fill="none" stroke="none"/><text fill="#000000" stroke="none" font-family="Arial" font-size="13px" font-style="normal" font-weight="bold" text-decoration="none" x="889.266845703125" y="98.5">controller</text></g></g><g transform="translate(10,-46) scale(1,1)"><rect fill="#C0C0C0" stroke="none" x="503" y="207" width="288.9697265625" height="104" opacity="0.2"/></g><g transform="translate(10,-46) scale(1,1)"><rect fill="#ffffff" stroke="none" x="496" y="200" width="288.9697265625" height="104"/></g><g transform="translate(10,-46) scale(1,1)"><path fill="none" stroke="#000000" d="M 496 200 L 784.9697265625 200 L 784.9697265625 304 L 496 304 L 496 200 Z Z" stroke-miterlimit="10"/></g><g transform="translate(10,-46) scale(1,1)"><path fill="none" stroke="#000000" d="M 496 225 L 784.9697265625 225" stroke-miterlimit="10"/></g><g transform="translate(10,-46) scale(1,1)"><path fill="none" stroke="#000000" d="M 496 235 L 784.9697265625 235" stroke-miterlimit="10"/></g><g transform="translate(10,-46) scale(1,1)"><g><path fill="none" stroke="none"/><text fill="#000000" stroke="none" font-family="Arial" font-size="13px" font-style="normal" font-weight="bold" text-decoration="none" x="597.13671875" y="219.5">AdvisorService</text></g></g><g transform="translate(10,-46) scale(1,1)"><g><path fill="none" stroke="none"/><text fill="#000000" stroke="none" font-family="Arial" font-size="13px" font-style="normal" font-weight="normal" text-decoration="none" x="501" y="252.5">#findAllAdvisors(): List&lt;Advisor&gt;</text></g></g><g transform="translate(10,-46) scale(1,1)"><g><path fill="none" stroke="none"/><text fill="#000000" stroke="none" font-family="Arial" font-size="13px" font-style="normal" font-weight="normal" text-decoration="none" x="501" y="267.5">#searchAdvisors(Advisor advisor): List&lt;Advisor&gt;</text></g></g><g transform="translate(10,-46) scale(1,1)"><g><path fill="none" stroke="none"/><text fill="#000000" stroke="none" font-family="Arial" font-size="13px" font-style="normal" font-weight="normal" text-decoration="none" x="501" y="282.5">+findByUsername(String login): List&lt;Advisor&gt;</text></g></g><g transform="translate(10,-46) scale(1,1)"><rect fill="#C0C0C0" stroke="none" x="559" y="399" width="331.98779296875" height="87" opacity="0.2"/></g><g transform="translate(10,-46) scale(1,1)"><rect fill="#ffffff" stroke="none" x="552" y="392" width="331.98779296875" height="87"/></g><g transform="translate(10,-46) scale(1,1)"><path fill="none" stroke="#000000" d="M 552 392 L 883.98779296875 392 L 883.98779296875 479 L 552 479 L 552 392 Z Z" stroke-miterlimit="10"/></g><g transform="translate(10,-46) scale(1,1)"><path fill="none" stroke="#000000" d="M 552 417 L 883.98779296875 417" stroke-miterlimit="10"/></g><g transform="translate(10,-46) scale(1,1)"><path fill="none" stroke="#000000" d="M 552 427 L 883.98779296875 427" stroke-miterlimit="10"/></g><g transform="translate(10,-46) scale(1,1)"><g><path fill="none" stroke="none"/><text fill="#000000" stroke="none" font-family="Arial" font-size="13px" font-style="normal" font-weight="bold" text-decoration="none" x="662.724853515625" y="411.5">OverdraftController</text></g></g><g transform="translate(10,-46) scale(1,1)"><g><path fill="none" stroke="none"/><text fill="#000000" stroke="none" font-family="Arial" font-size="13px" font-style="normal" font-weight="normal" text-decoration="none" x="557" y="444.5">#listAllOverdraftCustomer(): ModelAndView</text></g></g><g transform="translate(10,-46) scale(1,1)"><g><path fill="none" stroke="none"/><text fill="#000000" stroke="none" font-family="Arial" font-size="13px" font-style="normal" font-weight="normal" text-decoration="none" x="557" y="459.5">#getLimitExeededOverdraftCustomer(): ModelAndView</text></g></g><g transform="translate(10,-46) scale(1,1)"><g><path fill="none" stroke="none"/><text fill="#000000" stroke="none" font-family="Arial" font-size="13px" font-style="normal" font-weight="normal" text-decoration="none" x="557" y="474.5">#getDelayExeededOverdraftCustomer(): ModelAndView</text></g></g><g transform="translate(10,-46) scale(1,1)"><rect fill="#C0C0C0" stroke="none" x="519" y="519" width="326.5224609375" height="63" opacity="0.2"/></g><g transform="translate(10,-46) scale(1,1)"><rect fill="#ffffff" stroke="none" x="512" y="512" width="326.5224609375" height="63"/></g><g transform="translate(10,-46) scale(1,1)"><path fill="none" stroke="#000000" d="M 512 512 L 838.5224609375 512 L 838.5224609375 575 L 512 575 L 512 512 Z Z" stroke-miterlimit="10"/></g><g transform="translate(10,-46) scale(1,1)"><path fill="none" stroke="#000000" d="M 512 537 L 838.5224609375 537" stroke-miterlimit="10"/></g><g transform="translate(10,-46) scale(1,1)"><path fill="none" stroke="#000000" d="M 512 547 L 838.5224609375 547" stroke-miterlimit="10"/></g><g transform="translate(10,-46) scale(1,1)"><g><path fill="none" stroke="none"/><text fill="#000000" stroke="none" font-family="Arial" font-size="13px" font-style="normal" font-weight="bold" text-decoration="none" x="620.357177734375" y="531.5">WorkGroupAdvisor</text></g></g><g transform="translate(10,-46) scale(1,1)"><g><path fill="none" stroke="none"/><text fill="#000000" stroke="none" font-family="Arial" font-size="13px" font-style="normal" font-weight="normal" text-decoration="none" x="517" y="564.5">+getAllWorkGroupAdvisors(): List&lt;WorkGroupAdvisor&gt;</text></g></g><g transform="translate(10,-46) scale(1,1)"><path fill="none" stroke="#000000" d="M 698 391 L 662 305" stroke-miterlimit="10"/></g><g transform="translate(10,-46) scale(1,1)"><path fill="none" stroke="#000000" d="M 669.8072275589018 312.7490127012107 L 662 305 L 662.0411641206392 315.99992297769273" stroke-miterlimit="10"/></g><g transform="translate(10,-46) scale(1,1)"><path fill="none" stroke="#000000" d="M 712 480 L 712 480 L 694 511" stroke-miterlimit="10"/></g><g transform="translate(10,-46) scale(1,1)"><path fill="none" stroke="#000000" d="M 695.4626955717024 500.0976827387696 L 694 511 L 702.7433844236255 504.3251794914991" stroke-miterlimit="10"/></g><g transform="translate(10,-46) scale(1,1)"><path fill="#ffffff" stroke="none" d="M 826.375 111.5 C 826.375 101.7659804 834.2659804 93.875 844 93.875 C 853.7340196 93.875 861.625 101.7659804 861.625 111.5 C 861.625 121.2340196 853.7340196 129.125 844 129.125 C 834.2659804 129.125 826.375 121.2340196 826.375 111.5 Z"/></g><g transform="translate(10,-46) scale(1,1)"><path fill="none" stroke="#000000" d="M 826.375 111.5 C 826.375 101.7659804 834.2659804 93.875 844 93.875 C 853.7340196 93.875 861.625 101.7659804 861.625 111.5 C 861.625 121.2340196 853.7340196 129.125 844 129.125 C 834.2659804 129.125 826.375 121.2340196 826.375 111.5 Z" stroke-miterlimit="10"/></g><g transform="translate(10,-46) scale(1,1)"><path fill="none" stroke="#000000" d="M 844 93.875 L 849.875 88" stroke-miterlimit="10"/></g><g transform="translate(10,-46) scale(1,1)"><path fill="none" stroke="#000000" d="M 844 93.875 L 849.875 99.75" stroke-miterlimit="10"/></g><g transform="translate(10,-46) scale(1,1)"><g><path fill="none" stroke="none"/><text fill="#000000" stroke="none" font-family="Arial" font-size="13px" font-style="normal" font-weight="bold" text-decoration="none" x="844" y="154.5"></text></g></g><g transform="translate(10,-46) scale(1,1)"><rect fill="#C0C0C0" stroke="none" x="1391" y="63" width="144" height="15" opacity="0.2"/></g><g transform="translate(10,-46) scale(1,1)"><rect fill="#C0C0C0" stroke="none" x="1391" y="77" width="360" height="473" opacity="0.2"/></g><g transform="translate(10,-46) scale(1,1)"><rect fill="#ffffff" stroke="none" x="1384" y="71" width="360" height="472"/></g><g transform="translate(10,-46) scale(1,1)"><path fill="none" stroke="#000000" d="M 1384 71 L 1744 71 L 1744 543 L 1384 543 L 1384 71 Z Z" stroke-miterlimit="10"/></g><g transform="translate(10,-46) scale(1,1)"><rect fill="#ffffff" stroke="none" x="1384" y="56" width="144" height="15"/></g><g transform="translate(10,-46) scale(1,1)"><path fill="none" stroke="#000000" d="M 1384 56 L 1528 56 L 1528 71 L 1384 71 L 1384 56 Z Z" stroke-miterlimit="10"/></g><g transform="translate(10,-46) scale(1,1)"><rect fill="#ffffff" stroke="none" x="1384" y="70" width="360" height="473"/></g><g transform="translate(10,-46) scale(1,1)"><path fill="none" stroke="#000000" d="M 1384 70 L 1744 70 L 1744 543 L 1384 543 L 1384 70 Z Z" stroke-miterlimit="10"/></g><g transform="translate(10,-46) scale(1,1)"><g><path fill="none" stroke="none"/><text fill="#000000" stroke="none" font-family="Arial" font-size="13px" font-style="normal" font-weight="bold" text-decoration="none" x="1546.29638671875" y="90.5">model</text></g></g><g transform="translate(10,-46) scale(1,1)"><path fill="none" stroke="#000000" d="M 409 356 L 551 392" stroke-miterlimit="10"/></g><g transform="translate(10,-46) scale(1,1)"><path fill="none" stroke="#000000" d="M 540.1144978639583 393.582985548333 L 551 392 L 542.1834478072377 385.4221274387308" stroke-miterlimit="10"/></g><g transform="translate(10,-46) scale(1,1)"><rect fill="#C0C0C0" stroke="none" x="159" y="287" width="256" height="87" opacity="0.2"/></g><g transform="translate(10,-46) scale(1,1)"><rect fill="#ffffff" stroke="none" x="152" y="280" width="256" height="87"/></g><g transform="translate(10,-46) scale(1,1)"><path fill="none" stroke="#000000" d="M 152 280 L 408 280 L 408 367 L 152 367 L 152 280 Z Z" stroke-miterlimit="10"/></g><g transform="translate(10,-46) scale(1,1)"><path fill="none" stroke="#000000" d="M 152 305 L 408 305" stroke-miterlimit="10"/></g><g transform="translate(10,-46) scale(1,1)"><path fill="none" stroke="#000000" d="M 152 328 L 408 328" stroke-miterlimit="10"/></g><g transform="translate(10,-46) scale(1,1)"><g><path fill="none" stroke="none"/><text fill="#000000" stroke="none" font-family="Arial" font-size="13px" font-style="normal" font-weight="bold" text-decoration="none" x="261.94091796875" y="299.5">list.jsp</text></g></g><g transform="translate(10,-46) scale(1,1)"><g><path fill="none" stroke="none"/><text fill="#000000" stroke="none" font-family="Arial" font-size="13px" font-style="normal" font-weight="normal" text-decoration="none" x="157" y="322.5">+customers: List&lt;Customer&gt;</text></g></g><g transform="translate(10,-46) scale(1,1)"><path fill="#ffffff" stroke="none" d="M 456 696 L 796 696 L 806 706 L 806 806 L 456 806 L 456 696"/></g><g transform="translate(10,-46) scale(1,1)"><path fill="none" stroke="#000000" d="M 456 696 L 796 696 L 806 706 L 806 806 L 456 806 L 456 696 L 456 696" stroke-miterlimit="10"/></g><g transform="translate(10,-46) scale(1,1)"><path fill="none" stroke="#000000" d="M 796 696 L 796 706 L 806 706 L 796 696" stroke-miterlimit="10"/></g><g transform="translate(10,-46) scale(1,1)"><g><path fill="none" stroke="none"/><text fill="#000000" stroke="none" font-family="Arial" font-size="13px" font-style="normal" font-weight="normal" text-decoration="none" x="461" y="714">Name: Diagramme de classe participante</text></g></g><g transform="translate(10,-46) scale(1,1)"><g><path fill="none" stroke="none"/><text fill="#000000" stroke="none" font-family="Arial" font-size="13px" font-style="normal" font-weight="normal" text-decoration="none" x="461" y="729">Groupe: VASLOHMA</text></g></g><g transform="translate(10,-46) scale(1,1)"><g><path fill="none" stroke="none"/><text fill="#000000" stroke="none" font-family="Arial" font-size="13px" font-style="normal" font-weight="normal" text-decoration="none" x="461" y="744">UC: Alerter le client sur ses découverts</text></g></g><g transform="translate(10,-46) scale(1,1)"><g><path fill="none" stroke="none"/><text fill="#000000" stroke="none" font-family="Arial" font-size="13px" font-style="normal" font-weight="normal" text-decoration="none" x="461" y="759">version:1.0</text></g></g><g transform="translate(10,-46) scale(1,1)"><g><path fill="none" stroke="none"/><text fill="#000000" stroke="none" font-family="Arial" font-size="13px" font-style="normal" font-weight="normal" text-decoration="none" x="461" y="774">Author: Marc MEFOUNG EFONTSE</text></g></g><g transform="translate(10,-46) scale(1,1)"><g><path fill="none" stroke="none"/><text fill="#000000" stroke="none" font-family="Arial" font-size="13px" font-style="normal" font-weight="normal" text-decoration="none" x="461" y="789">Flow: Send alert to customer by message</text></g></g><g transform="translate(10,-46) scale(1,1)"><path fill="#ffffff" stroke="none" d="M 1638.5708984375 99.5 C 1638.5708984375 90.88435712 1645.5552555575 83.9 1654.1708984375 83.9 C 1662.7865413175 83.9 1669.7708984375 90.88435712 1669.7708984375 99.5 C 1669.7708984375 108.11564288 1662.7865413175 115.1 1654.1708984375 115.1 C 1645.5552555575 115.1 1638.5708984375 108.11564288 1638.5708984375 99.5 Z"/></g><g transform="translate(10,-46) scale(1,1)"><path fill="none" stroke="#000000" d="M 1638.5708984375 99.5 C 1638.5708984375 90.88435712 1645.5552555575 83.9 1654.1708984375 83.9 C 1662.7865413175 83.9 1669.7708984375 90.88435712 1669.7708984375 99.5 C 1669.7708984375 108.11564288 1662.7865413175 115.1 1654.1708984375 115.1 C 1645.5552555575 115.1 1638.5708984375 108.11564288 1638.5708984375 99.5 Z" stroke-miterlimit="10"/></g><g transform="translate(10,-46) scale(1,1)"><path fill="none" stroke="#000000" d="M 1638.5708984375 115.1 L 1669.7708984375 115.1" stroke-miterlimit="10"/></g><g transform="translate(10,-46) scale(1,1)"><g><path fill="none" stroke="none"/><text fill="#000000" stroke="none" font-family="Arial" font-size="13px" font-style="normal" font-weight="bold" text-decoration="none" x="1654.1708984375" y="138.5"></text></g></g><g transform="translate(10,-46) scale(1,1)"><rect fill="#C0C0C0" stroke="none" x="831" y="207" width="514.400390625" height="103" opacity="0.2"/></g><g transform="translate(10,-46) scale(1,1)"><rect fill="#ffffff" stroke="none" x="824" y="200" width="514.400390625" height="103"/></g><g transform="translate(10,-46) scale(1,1)"><path fill="none" stroke="#000000" d="M 824 200 L 1338.400390625 200 L 1338.400390625 303 L 824 303 L 824 200 Z Z" stroke-miterlimit="10"/></g><g transform="translate(10,-46) scale(1,1)"><path fill="none" stroke="#000000" d="M 824 225 L 1338.400390625 225" stroke-miterlimit="10"/></g><g transform="translate(10,-46) scale(1,1)"><path fill="none" stroke="#000000" d="M 824 278 L 1338.400390625 278" stroke-miterlimit="10"/></g><g transform="translate(10,-46) scale(1,1)"><g><path fill="none" stroke="none"/><text fill="#000000" stroke="none" font-family="Arial" font-size="13px" font-style="normal" font-weight="bold" text-decoration="none" x="982.586181640625" y="219.5">CurrentOverdraftCustomerService</text></g></g><g transform="translate(10,-46) scale(1,1)"><g><path fill="none" stroke="none"/><text fill="#000000" stroke="none" font-family="Arial" font-size="13px" font-style="normal" font-weight="normal" text-decoration="none" x="829" y="242.5">+findAllCustomerOverdraftSituation(userDetail): List&lt;CurrentOverdraftCustomer&gt; </text></g></g><g transform="translate(10,-46) scale(1,1)"><g><path fill="none" stroke="none"/><text fill="#000000" stroke="none" font-family="Arial" font-size="13px" font-style="normal" font-weight="normal" text-decoration="none" x="829" y="257.5">+findAllCustomerOverdraftLimitExeeded(userDetail): List&lt;CurrentOverdraftCustomer&gt; </text></g></g><g transform="translate(10,-46) scale(1,1)"><g><path fill="none" stroke="none"/><text fill="#000000" stroke="none" font-family="Arial" font-size="13px" font-style="normal" font-weight="normal" text-decoration="none" x="829" y="272.5">+findAllCustomerOverdraftDelayExeeded(userDetail): List&lt;CurrentOverdraftCustomer&gt; </text></g></g><g transform="translate(10,-46) scale(1,1)"><path fill="none" stroke="#000000" d="M 804 391 L 976 304" stroke-miterlimit="10"/></g><g transform="translate(10,-46) scale(1,1)"><path fill="none" stroke="#000000" d="M 968.8314194800864 312.3433478490062 L 976 304 L 965.0314102610569 304.8306859447178" stroke-miterlimit="10"/></g><g transform="translate(10,-46) scale(1,1)"><rect fill="#C0C0C0" stroke="none" x="1031" y="399" width="223" height="127" opacity="0.2"/></g><g transform="translate(10,-46) scale(1,1)"><rect fill="#ffffff" stroke="none" x="1024" y="392" width="223" height="127"/></g><g transform="translate(10,-46) scale(1,1)"><path fill="none" stroke="#000000" d="M 1024 392 L 1247 392 L 1247 519 L 1024 519 L 1024 392 Z Z" stroke-miterlimit="10"/></g><g transform="translate(10,-46) scale(1,1)"><path fill="none" stroke="#000000" d="M 1024 417 L 1247 417" stroke-miterlimit="10"/></g><g transform="translate(10,-46) scale(1,1)"><path fill="none" stroke="#000000" d="M 1024 455 L 1247 455" stroke-miterlimit="10"/></g><g transform="translate(10,-46) scale(1,1)"><g><path fill="none" stroke="none"/><text fill="#000000" stroke="none" font-family="Arial" font-size="13px" font-style="normal" font-weight="bold" text-decoration="none" x="1087.089599609375" y="411.5">SentAlertService</text></g></g><g transform="translate(10,-46) scale(1,1)"><g><path fill="none" stroke="none"/><text fill="#000000" stroke="none" font-family="Arial" font-size="13px" font-style="normal" font-weight="normal" text-decoration="none" x="1029" y="434.5">+sendPreconfigMessage()</text></g></g><g transform="translate(10,-46) scale(1,1)"><g><path fill="none" stroke="none"/><text fill="#000000" stroke="none" font-family="Arial" font-size="13px" font-style="normal" font-weight="normal" text-decoration="none" x="1029" y="449.5">+sendPersonnalisedMessage()</text></g></g><g transform="translate(10,-46) scale(1,1)"><path fill="none" stroke="#000000" d="M 885 443 L 1023 450" stroke-miterlimit="10"/></g><g transform="translate(10,-46) scale(1,1)"><path fill="none" stroke="#000000" d="M 1012.6371220995095 453.6892765712976 L 1023 450 L 1013.0636262827178 445.28105124519215" stroke-miterlimit="10"/></g><g transform="translate(10,-46) scale(1,1)"><rect fill="#C0C0C0" stroke="none" x="1479" y="255" width="207" height="143" opacity="0.2"/></g><g transform="translate(10,-46) scale(1,1)"><rect fill="#ffffff" stroke="none" x="1472" y="248" width="207" height="143"/></g><g transform="translate(10,-46) scale(1,1)"><path fill="none" stroke="#000000" d="M 1472 248 L 1679 248 L 1679 391 L 1472 391 L 1472 248 Z Z" stroke-miterlimit="10"/></g><g transform="translate(10,-46) scale(1,1)"><path fill="none" stroke="#000000" d="M 1472 273 L 1679 273" stroke-miterlimit="10"/></g><g transform="translate(10,-46) scale(1,1)"><path fill="none" stroke="#000000" d="M 1472 311 L 1679 311" stroke-miterlimit="10"/></g><g transform="translate(10,-46) scale(1,1)"><g><path fill="none" stroke="none"/><text fill="#000000" stroke="none" font-family="Arial" font-size="13px" font-style="normal" font-weight="bold" text-decoration="none" x="1548.763671875" y="267.5">SentAlert</text></g></g><g transform="translate(10,-46) scale(1,1)"><g><path fill="none" stroke="none"/><text fill="#000000" stroke="none" font-family="Arial" font-size="13px" font-style="normal" font-weight="normal" text-decoration="none" x="1477" y="290.5">+sentDate: date</text></g></g><g transform="translate(10,-46) scale(1,1)"><g><path fill="none" stroke="none"/><text fill="#000000" stroke="none" font-family="Arial" font-size="13px" font-style="normal" font-weight="normal" text-decoration="none" x="1477" y="305.5">+msg: String</text></g></g><g transform="translate(10,-46) scale(1,1)"><path fill="none" stroke="#000000" d="M 1248 420 L 1471 351" stroke-miterlimit="10"/></g><g transform="translate(10,-46) scale(1,1)"><path fill="none" stroke="#000000" d="M 1462.5357414228806 358.0254058060487 L 1471 351 L 1460.0471532763581 349.98257744844693" stroke-miterlimit="10"/></g></g></svg>